<svg xmlns="http://www.w3.org/2000/svg" viewBox="0 0 512 512" xml:space="preserve"><circle style="fill:#606060" cx="53.337" cy="140.889" r="43.653"/><path style="fill:#f0efef" d="M512 192.862v229.605l-41.878 41.878H51.505L9.707 422.467V192.862z"/><path style="fill:#f0e057" d="m111.528 144.713-24.267 48.168h68.212l24.267-48.168z"/><path style="fill:#3f3f3f" d="M453.572 192.881h58.373v-48.168h-34.106z"/><path style="fill:#6eb9d2" d="m233.632 144.713-24.267 48.168h68.212l24.267-48.168z"/><path style="fill:#e3ecf8" d="m355.735 144.713-24.266 48.168h68.211l24.267-48.168z"/><path style="fill:#3f3f3f" d="m57.602 144.726-18.773 37.305-5.455 10.831H8.665v-48.136z"/><path style="fill:#3c4858" d="m423.947 144.713-24.267 48.168h53.892l24.267-48.168z"/><path style="fill:#c03555" d="m301.844 144.713-24.267 48.168h53.892l24.266-48.168z"/><path style="fill:#448538" d="m179.74 144.713-24.267 48.168h53.892l24.267-48.168z"/><path style="fill:#3c4858" d="m57.636 144.713-24.267 48.168h53.892l24.267-48.168z"/><path style="fill:#e3ecf8" d="m416.371 64.581-66.989 13.157-33.052-42.6 66.908-13.156z"/><path style="fill:#3f3f3f" d="m56.96 135.34-47.092 9.306-.562.08L0 97.473l23.827-4.733 4.011-.802 6.499 9.707z"/><path style="fill:#6eb9d2" d="M296.514 88.168 256 96.11l-26.394 5.214-33.134-42.519L256 47.011l7.461-1.443z"/><path style="fill:#f0e057" d="m176.737 111.754-66.908 13.157-33.133-42.52 66.908-13.237z"/><path style="fill:#3f3f3f" d="m504.138 47.252-34.738 6.9-.722-.722-42.68-39.872 10.108-2.006 53.19-10.51L494.832 0l1.604 8.182z"/><path style="fill:#3c4858" d="m109.829 124.911-14.842 2.968-38.027 7.461-25.19-32.332-7.943-10.268 4.011-.802 48.858-9.547z"/><path style="fill:#448538" d="m229.606 101.324-52.869 10.43-33.133-42.6 52.868-10.349z"/><path style="fill:#c03555" d="m349.382 77.738-52.868 10.43-33.053-42.6 52.869-10.43z"/><path style="fill:#3c4858" d="m469.24 54.152-52.869 10.429-33.133-42.599 42.76-8.424 10.108-2.006 32.572 41.878.161.16z"/><circle style="fill:#f0e1b7" cx="23.882" cy="117.874" r="6.125"/><circle style="fill:#f0e1b7" cx="23.882" cy="169.717" r="6.125"/><path style="fill:#454444" d="M83.144 235.66h355.384v71.782H83.144z"/><path style="fill:#e3354e" d="m118.012 253.192-8.825 6.337v7.061l8.825-6.338v28.881h7.862v-35.941zm20.858 0v11.553h7.541v-5.616h11.312l-13.96 30.004h8.584l13.96-30.004v-5.937zm33.936 28.479v7.461h9.065v-7.461zm28.159-28.479-8.744 6.337v7.061l8.744-6.338v28.881h7.862v-35.941zm43.081 18.371c.722-.721 1.364-1.363 1.926-2.006a15 15 0 0 0 1.444-1.925c.401-.641.722-1.283.882-1.925.241-.722.321-1.524.321-2.406q0-2.407-.963-4.333c-.641-1.284-1.524-2.406-2.727-3.29-1.123-.881-2.487-1.604-4.092-2.086-1.685-.481-3.369-.722-5.295-.722-1.845 0-3.61.241-5.214.722-1.524.482-2.968 1.124-4.172 2.086-1.123.883-2.086 2.006-2.727 3.29-.722 1.284-1.043 2.727-1.043 4.413h7.862q0-1.324.481-2.166.482-.962 1.203-1.445c.481-.321 1.043-.641 1.685-.722a8 8 0 0 1 1.925-.24q2.528 0 3.851 1.203c.882.803 1.364 1.925 1.364 3.29 0 .802-.161 1.525-.562 2.165q-.481.964-1.684 2.166l-16.125 15.564v5.937h26.233v-5.937h-16.687zm11.794 10.108v7.461h8.985v-7.461zm41.556-22.623c-.642-1.364-1.605-2.487-2.808-3.37-1.203-.962-2.567-1.604-4.172-2.086a17.4 17.4 0 0 0-4.974-.722c-1.845 0-3.45.241-5.054.722-1.605.482-2.968 1.124-4.172 2.086a9.8 9.8 0 0 0-2.888 3.37c-.722 1.284-1.043 2.808-1.043 4.572v15.083c0 1.685.321 3.208 1.043 4.573a9.8 9.8 0 0 0 2.888 3.37 13.6 13.6 0 0 0 4.172 2.086c1.605.401 3.209.642 5.054.642 1.685 0 3.369-.241 4.974-.642a13.6 13.6 0 0 0 4.172-2.086c1.203-.883 2.166-2.006 2.808-3.37a9.65 9.65 0 0 0 1.123-4.573V263.62c.001-1.764-.4-3.288-1.123-4.572m-6.738 19.656c0 1.444-.482 2.647-1.445 3.529s-2.246 1.283-3.77 1.283c-1.605 0-2.888-.401-3.851-1.283s-1.444-2.086-1.444-3.529v-15.003q0-2.286 1.444-3.61c.963-.882 2.246-1.283 3.851-1.283 1.524 0 2.808.401 3.77 1.283q1.445 1.324 1.445 3.61zm26.153-25.512-8.744 6.337v7.061l8.744-6.338v28.881h7.862v-35.941zm21.982 28.479v7.461h9.065v-7.461zm41.637-22.623a9.8 9.8 0 0 0-2.888-3.37c-1.123-.962-2.567-1.604-4.171-2.086a17 17 0 0 0-4.974-.722q-2.648 0-5.054.722c-1.524.482-2.969 1.124-4.172 2.086-1.204.883-2.166 2.006-2.808 3.37-.722 1.284-1.123 2.808-1.123 4.572v15.083c0 1.685.401 3.208 1.123 4.573.642 1.364 1.605 2.486 2.808 3.37 1.203.881 2.648 1.604 4.172 2.086 1.604.401 3.289.642 5.054.642s3.37-.241 4.974-.642c1.604-.482 3.048-1.204 4.171-2.086a9.8 9.8 0 0 0 2.888-3.37c.722-1.364 1.043-2.888 1.043-4.573V263.62c0-1.764-.321-3.288-1.043-4.572m-6.819 19.656c0 1.444-.481 2.647-1.444 3.529s-2.166 1.283-3.771 1.283-2.808-.401-3.851-1.283c-.963-.882-1.444-2.086-1.444-3.529v-15.003q0-2.286 1.444-3.61c1.043-.882 2.247-1.283 3.851-1.283s2.808.401 3.771 1.283q1.444 1.324 1.444 3.61zm39.551-5.216a11.85 11.85 0 0 0-3.931-2.967c1.364-.642 2.567-1.525 3.53-2.648.882-1.203 1.364-2.727 1.364-4.733 0-1.444-.321-2.888-.963-4.092-.642-1.284-1.524-2.406-2.727-3.29-1.123-.882-2.567-1.604-4.172-2.086-1.605-.561-3.369-.802-5.215-.802s-3.53.241-5.134.722c-1.605.482-2.968 1.124-4.172 2.006-1.123.883-2.086 1.925-2.808 3.21-.722 1.283-1.043 2.727-1.123 4.332h7.862c.08-1.364.642-2.486 1.605-3.209 1.043-.802 2.246-1.122 3.77-1.122 1.364 0 2.648.401 3.691 1.122 1.043.803 1.524 1.925 1.524 3.45 0 1.284-.401 2.326-1.204 3.209-.882.881-2.246 1.283-4.252 1.283h-1.123v5.696h1.123c2.006 0 3.45.482 4.493 1.364s1.605 2.086 1.605 3.611c0 1.604-.562 2.808-1.605 3.69-1.123.882-2.487 1.283-4.252 1.283-.722 0-1.444-.079-2.166-.32-.722-.161-1.364-.401-1.845-.802-.562-.401-.963-.883-1.283-1.524-.321-.562-.481-1.285-.562-2.086h-7.862q.12 2.888 1.203 4.812c.803 1.364 1.846 2.487 3.049 3.29 1.284.881 2.728 1.524 4.412 1.925 1.605.401 3.289.561 5.054.561 1.926 0 3.691-.161 5.295-.642 1.684-.401 3.129-1.044 4.332-2.006 1.284-.883 2.246-2.006 2.968-3.289.722-1.364 1.123-2.968 1.123-4.733.001-2.165-.561-3.93-1.604-5.215"/><path style="fill:none;stroke:#3c4858;stroke-width:.8134;stroke-miterlimit:10" d="M35.712 342.8H485.96m-308.146 11.419v75.041m166.044-75.041v75.041"/><path style="fill:#c5cad0" d="m420.038 370.381 5.301 16.317h17.157l-13.88 10.084 5.302 16.316-13.88-10.084-13.88 10.084 5.302-16.316-13.88-10.084h17.156z"/><g style="opacity:.1"><path style="fill:#040000" d="M256 192.884v271.435h214.098l41.894-41.884V192.884zM469.4 54.152l-.561-.562.401.562-52.869 10.429-66.989 13.157-52.868 10.43L256 96.11V47.011l7.461-1.443 52.869-10.43 66.908-13.156 42.76-8.424 10.108-2.006 53.19-10.51L494.832 0l1.604 8.182 7.702 39.07zM331.469 192.881h180.476v-48.168H256v48.168h21.577z"/></g></svg>